HIERARCHY
ROOT mixamorig:Hips
{
	OFFSET -0.000008 104.274872 1.554316
	CHANNELS 6 Xposition Yposition Zposition Xrotation Yrotation Zrotation
	JOINT mixamorig:Spine
	{
		OFFSET -0.000005 10.181595 0.131519
		CHANNELS 6 Xposition Yposition Zposition Xrotation Yrotation Zrotation
		JOINT mixamorig:Spine1
		{
			OFFSET -0.000000 9.893959 -1.470707
			CHANNELS 6 Xposition Yposition Zposition Xrotation Yrotation Zrotation
			JOINT mixamorig:Spine2
			{
				OFFSET -0.000000 9.220757 -1.370641
				CHANNELS 6 Xposition Yposition Zposition Xrotation Yrotation Zrotation
				JOINT mixamorig:Neck
				{
					OFFSET 0.000001 16.740417 -2.049036
					CHANNELS 6 Xposition Yposition Zposition Xrotation Yrotation Zrotation
					JOINT mixamorig:Head
					{
						OFFSET 0.000000 9.617874 1.685006
						CHANNELS 6 Xposition Yposition Zposition Xrotation Yrotation Zrotation
						JOINT mixamorig:HeadTop_End
						{
							OFFSET 0.000002 22.037354 7.501101
							CHANNELS 6 Xposition Yposition Zposition Xrotation Yrotation Zrotation
							End Site
							{
								OFFSET 0.000168 2310.654297 -282.823242
							}
						}
					}
				}
				JOINT mixamorig:RightShoulder
				{
					OFFSET -4.569970 11.014908 -2.160885
					CHANNELS 6 Xposition Yposition Zposition Xrotation Yrotation Zrotation
					JOINT mixamorig:RightArm
					{
						OFFSET -10.592851 -0.524811 -2.232101
						CHANNELS 6 Xposition Yposition Zposition Xrotation Yrotation Zrotation
						JOINT mixamorig:RightForeArm
						{
							OFFSET -27.841511 0.000031 -0.000004
							CHANNELS 6 Xposition Yposition Zposition Xrotation Yrotation Zrotation
							JOINT mixamorig:RightHand
							{
								OFFSET -28.328831 -0.000015 0.000015
								CHANNELS 6 Xposition Yposition Zposition Xrotation Yrotation Zrotation
								JOINT mixamorig:RightHandThumb1
								{
									OFFSET -2.464806 -1.573990 2.681852
									CHANNELS 6 Xposition Yposition Zposition Xrotation Yrotation Zrotation
									JOINT mixamorig:RightHandThumb2
									{
										OFFSET -3.215179 -1.872803 1.924282
										CHANNELS 6 Xposition Yposition Zposition Xrotation Yrotation Zrotation
										JOINT mixamorig:RightHandThumb3
										{
											OFFSET -2.654831 -1.527969 1.512609
											CHANNELS 6 Xposition Yposition Zposition Xrotation Yrotation Zrotation
											JOINT mixamorig:RightHandThumb4
											{
												OFFSET -2.018814 -1.152008 1.108052
												CHANNELS 6 Xposition Yposition Zposition Xrotation Yrotation Zrotation
												End Site
												{
													OFFSET -188.809540 -114.533607 132.431396
												}
											}
										}
									}
								}
								JOINT mixamorig:RightHandIndex1
								{
									OFFSET -9.108284 -0.517868 2.259835
									CHANNELS 6 Xposition Yposition Zposition Xrotation Yrotation Zrotation
									JOINT mixamorig:RightHandIndex2
									{
										OFFSET -3.699989 0.000000 0.001215
										CHANNELS 6 Xposition Yposition Zposition Xrotation Yrotation Zrotation
										JOINT mixamorig:RightHandIndex3
										{
											OFFSET -2.850006 0.000031 -0.000522
											CHANNELS 6 Xposition Yposition Zposition Xrotation Yrotation Zrotation
											JOINT mixamorig:RightHandIndex4
											{
												OFFSET -2.772186 -0.000015 -0.000020
												CHANNELS 6 Xposition Yposition Zposition Xrotation Yrotation Zrotation
												End Site
												{
													OFFSET -277.218445 0.000000 -0.050231
												}
											}
										}
									}
								}
								JOINT mixamorig:RightHandMiddle1
								{
									OFFSET -9.532516 -0.000031 -0.000023
									CHANNELS 6 Xposition Yposition Zposition Xrotation Yrotation Zrotation
									JOINT mixamorig:RightHandMiddle2
									{
										OFFSET -3.700005 -0.000015 0.003713
										CHANNELS 6 Xposition Yposition Zposition Xrotation Yrotation Zrotation
										JOINT mixamorig:RightHandMiddle3
										{
											OFFSET -2.949974 0.000015 -0.002054
											CHANNELS 6 Xposition Yposition Zposition Xrotation Yrotation Zrotation
											JOINT mixamorig:RightHandMiddle4
											{
												OFFSET -2.946640 0.000000 -0.000156
												CHANNELS 6 Xposition Yposition Zposition Xrotation Yrotation Zrotation
												End Site
												{
													OFFSET -294.664337 0.000000 -0.113670
												}
											}
										}
									}
								}
								JOINT mixamorig:RightHandRing1
								{
									OFFSET -9.103600 -0.043076 -1.865134
									CHANNELS 6 Xposition Yposition Zposition Xrotation Yrotation Zrotation
									JOINT mixamorig:RightHandRing2
									{
										OFFSET -3.379288 0.000000 -0.001055
										CHANNELS 6 Xposition Yposition Zposition Xrotation Yrotation Zrotation
										JOINT mixamorig:RightHandRing3
										{
											OFFSET -2.889687 -0.000015 0.000379
											CHANNELS 6 Xposition Yposition Zposition Xrotation Yrotation Zrotation
											JOINT mixamorig:RightHandRing4
											{
												OFFSET -2.638809 -0.000015 0.000941
												CHANNELS 6 Xposition Yposition Zposition Xrotation Yrotation Zrotation
												End Site
												{
													OFFSET -263.880371 0.000000 0.516020
												}
											}
										}
									}
								}
								JOINT mixamorig:RightHandPinky1
								{
									OFFSET -8.076683 -0.486710 -3.806280
									CHANNELS 6 Xposition Yposition Zposition Xrotation Yrotation Zrotation
									JOINT mixamorig:RightHandPinky2
									{
										OFFSET -3.600014 -0.000015 -0.003747
										CHANNELS 6 Xposition Yposition Zposition Xrotation Yrotation Zrotation
										JOINT mixamorig:RightHandPinky3
										{
											OFFSET -2.099983 0.000000 -0.005739
											CHANNELS 6 Xposition Yposition Zposition Xrotation Yrotation Zrotation
											JOINT mixamorig:RightHandPinky4
											{
												OFFSET -2.115768 -0.000031 -0.003680
												CHANNELS 6 Xposition Yposition Zposition Xrotation Yrotation Zrotation
												End Site
												{
													OFFSET -211.577087 0.000000 -0.350686
												}
											}
										}
									}
								}
							}
						}
					}
				}
				JOINT mixamorig:LeftShoulder
				{
					OFFSET 4.570447 11.014725 -2.160855
					CHANNELS 6 Xposition Yposition Zposition Xrotation Yrotation Zrotation
					JOINT mixamorig:LeftArm
					{
						OFFSET 10.592371 -0.524597 -2.232119
						CHANNELS 6 Xposition Yposition Zposition Xrotation Yrotation Zrotation
						JOINT mixamorig:LeftForeArm
						{
							OFFSET 27.841532 -0.000031 0.000026
							CHANNELS 6 Xposition Yposition Zposition Xrotation Yrotation Zrotation
							JOINT mixamorig:LeftHand
							{
								OFFSET 28.328846 -0.000061 0.000022
								CHANNELS 6 Xposition Yposition Zposition Xrotation Yrotation Zrotation
								JOINT mixamorig:LeftHandThumb1
								{
									OFFSET 2.466141 -1.576172 2.681732
									CHANNELS 6 Xposition Yposition Zposition Xrotation Yrotation Zrotation
									JOINT mixamorig:LeftHandThumb2
									{
										OFFSET 3.217812 -1.872070 1.916482
										CHANNELS 6 Xposition Yposition Zposition Xrotation Yrotation Zrotation
										JOINT mixamorig:LeftHandThumb3
										{
											OFFSET 2.656029 -1.528778 1.514513
											CHANNELS 6 Xposition Yposition Zposition Xrotation Yrotation Zrotation
											JOINT mixamorig:LeftHandThumb4
											{
												OFFSET 2.020889 -1.154053 1.115139
												CHANNELS 6 Xposition Yposition Zposition Xrotation Yrotation Zrotation
												End Site
												{
													OFFSET 190.885437 -115.081749 130.048782
												}
											}
										}
									}
								}
								JOINT mixamorig:LeftHandIndex1
								{
									OFFSET 9.109314 -0.518021 2.259871
									CHANNELS 6 Xposition Yposition Zposition Xrotation Yrotation Zrotation
									JOINT mixamorig:LeftHandIndex2
									{
										OFFSET 3.699989 0.000000 -0.000322
										CHANNELS 6 Xposition Yposition Zposition Xrotation Yrotation Zrotation
										JOINT mixamorig:LeftHandIndex3
										{
											OFFSET 2.850006 0.000000 0.000352
											CHANNELS 6 Xposition Yposition Zposition Xrotation Yrotation Zrotation
											JOINT mixamorig:LeftHandIndex4
											{
												OFFSET 2.774864 -0.000031 -0.000027
												CHANNELS 6 Xposition Yposition Zposition Xrotation Yrotation Zrotation
												End Site
												{
													OFFSET 277.486267 0.000000 -0.009857
												}
											}
										}
									}
								}
								JOINT mixamorig:LeftHandMiddle1
								{
									OFFSET 9.533394 0.000061 0.000044
									CHANNELS 6 Xposition Yposition Zposition Xrotation Yrotation Zrotation
									JOINT mixamorig:LeftHandMiddle2
									{
										OFFSET 3.699989 -0.000015 -0.000231
										CHANNELS 6 Xposition Yposition Zposition Xrotation Yrotation Zrotation
										JOINT mixamorig:LeftHandMiddle3
										{
											OFFSET 2.949997 -0.000015 -0.000059
											CHANNELS 6 Xposition Yposition Zposition Xrotation Yrotation Zrotation
											JOINT mixamorig:LeftHandMiddle4
											{
												OFFSET 2.952896 0.000031 0.000063
												CHANNELS 6 Xposition Yposition Zposition Xrotation Yrotation Zrotation
												End Site
												{
													OFFSET 295.289337 0.000000 0.022810
												}
											}
										}
									}
								}
								JOINT mixamorig:LeftHandRing1
								{
									OFFSET 9.104523 -0.042999 -1.865074
									CHANNELS 6 Xposition Yposition Zposition Xrotation Yrotation Zrotation
									JOINT mixamorig:LeftHandRing2
									{
										OFFSET 3.150009 -0.000031 0.000043
										CHANNELS 6 Xposition Yposition Zposition Xrotation Yrotation Zrotation
										JOINT mixamorig:LeftHandRing3
										{
											OFFSET 2.949982 -0.000015 0.000040
											CHANNELS 6 Xposition Yposition Zposition Xrotation Yrotation Zrotation
											JOINT mixamorig:LeftHandRing4
											{
												OFFSET 2.644348 0.000000 0.000057
												CHANNELS 6 Xposition Yposition Zposition Xrotation Yrotation Zrotation
												End Site
												{
													OFFSET 264.434631 0.000000 0.012105
												}
											}
										}
									}
								}
								JOINT mixamorig:LeftHandPinky1
								{
									OFFSET 8.077789 -0.486847 -3.806259
									CHANNELS 6 Xposition Yposition Zposition Xrotation Yrotation Zrotation
									JOINT mixamorig:LeftHandPinky2
									{
										OFFSET 3.599953 0.000031 0.014727
										CHANNELS 6 Xposition Yposition Zposition Xrotation Yrotation Zrotation
										JOINT mixamorig:LeftHandPinky3
										{
											OFFSET 2.100021 0.000015 0.007705
											CHANNELS 6 Xposition Yposition Zposition Xrotation Yrotation Zrotation
											JOINT mixamorig:LeftHandPinky4
											{
												OFFSET 2.125504 0.000031 0.007517
												CHANNELS 6 Xposition Yposition Zposition Xrotation Yrotation Zrotation
												End Site
												{
													OFFSET 212.550781 0.000000 0.625752
												}
											}
										}
									}
								}
							}
						}
					}
				}
			}
		}
	}
	JOINT mixamorig:RightUpLeg
	{
		OFFSET -8.207787 -6.751648 -1.599560
		CHANNELS 6 Xposition Yposition Zposition Xrotation Yrotation Zrotation
		JOINT mixamorig:RightLeg
		{
			OFFSET -0.000002 -44.370117 0.345942
			CHANNELS 6 Xposition Yposition Zposition Xrotation Yrotation Zrotation
			JOINT mixamorig:RightFoot
			{
				OFFSET 0.000003 -44.423679 -3.043532
				CHANNELS 6 Xposition Yposition Zposition Xrotation Yrotation Zrotation
				JOINT mixamorig:RightToeBase
				{
					OFFSET -0.000002 -8.728671 10.710558
					CHANNELS 6 Xposition Yposition Zposition Xrotation Yrotation Zrotation
					JOINT mixamorig:RightToe_End
					{
						OFFSET -0.000001 -0.000679 9.278119
						CHANNELS 6 Xposition Yposition Zposition Xrotation Yrotation Zrotation
						End Site
						{
							OFFSET 0.000000 -0.067690 927.812134
						}
					}
				}
			}
		}
	}
	JOINT mixamorig:LeftUpLeg
	{
		OFFSET 8.207793 -6.751686 -1.599556
		CHANNELS 6 Xposition Yposition Zposition Xrotation Yrotation Zrotation
		JOINT mixamorig:LeftLeg
		{
			OFFSET -0.000004 -44.370014 0.346954
			CHANNELS 6 Xposition Yposition Zposition Xrotation Yrotation Zrotation
			JOINT mixamorig:LeftFoot
			{
				OFFSET -0.000001 -44.423672 -3.044401
				CHANNELS 6 Xposition Yposition Zposition Xrotation Yrotation Zrotation
				JOINT mixamorig:LeftToeBase
				{
					OFFSET -0.000002 -8.728669 10.710558
					CHANNELS 6 Xposition Yposition Zposition Xrotation Yrotation Zrotation
					JOINT mixamorig:LeftToe_End
					{
						OFFSET -0.000003 -0.000679 9.278133
						CHANNELS 6 Xposition Yposition Zposition Xrotation Yrotation Zrotation
						End Site
						{
							OFFSET 0.000000 -0.068021 927.813477
						}
					}
				}
			}
		}
	}
}
MOTION
Frames: 3
Frame Time: 0.033333
0.000006 104.270477 1.554256 0.000010 0.000003 -0.000113 -0.000005 10.181587 0.131522 0.000001 -0.000003 0.000084 -0.000000 9.893967 -1.470711 0.000001 0.000000 -0.000000 -0.000000 9.220802 -1.370642 0.000000 -0.000000 -0.000000 0.000001 16.740433 -2.049030 0.000000 -0.000000 -0.000000 0.000000 9.617859 1.685014 0.000000 0.000000 0.000000 0.000002 22.037384 7.501101 0.000000 -0.000000 0.000000 -4.569968 11.014880 -2.160881 0.000008 0.000001 -0.000038 -10.592875 -0.524764 -2.231896 74.881918 28.791436 -22.237846 -27.841509 0.000025 0.000547 -52.010494 109.946129 69.677273 -28.328827 0.000020 0.000027 -0.000326 -0.000045 0.000006 -2.464604 -1.573593 2.682255 126.023370 18.895833 117.876224 -3.215278 -1.872651 1.924697 155.812543 27.677142 -19.799030 -2.654957 -1.527874 1.513088 142.173133 27.427712 -45.084023 -2.018838 -1.151978 1.108063 -0.000000 -0.000002 0.000004 -9.108377 -0.517553 2.260126 100.286267 15.786015 -18.912615 -3.700080 0.000319 0.001496 94.723515 12.392218 -13.423775 -2.850062 0.000367 -0.000286 91.421488 9.992951 -10.241753 -2.772168 -0.000014 -0.000018 0.000001 -0.000001 -0.000001 -9.532586 0.000264 0.000187 82.612511 16.070916 -14.268744 -3.700077 0.000316 0.003911 80.690953 10.981261 -9.255970 -2.950052 0.000329 -0.001863 81.060835 10.457546 -8.941857 -2.946626 0.000001 -0.000159 -0.000002 -0.000001 0.000001 -9.103712 -0.042785 -1.864944 75.117451 20.013682 -15.417723 -3.379343 0.000285 -0.000886 76.896804 10.321396 -8.217017 -2.889758 0.000334 0.000576 80.947441 6.414812 -5.513892 -2.638794 -0.000001 0.000938 0.000000 -0.000006 0.000001 -8.076750 -0.486420 -3.806128 62.991467 18.636364 -11.383642 -3.600037 0.000232 -0.003607 67.146265 9.836616 -6.293761 -2.100011 0.000292 -0.005580 71.232432 5.823535 -4.014862 -2.115768 -0.000026 -0.003680 -0.000000 -0.000001 -0.000003 4.570446 11.014691 -2.160851 -0.000018 0.000010 -0.000021 10.592413 -0.524461 -2.232385 76.647488 -16.283902 12.903851 27.841833 0.000092 -0.000210 110.314146 -68.977882 89.243511 28.328835 -0.000028 0.000025 0.000022 -0.000089 -0.000001 2.465886 -1.576039 2.681896 -52.207835 -177.004024 27.426689 3.217854 -1.871831 1.916391 154.147411 -25.530740 33.176493 2.656096 -1.528655 1.514442 135.375688 -29.046947 46.940468 2.020898 -1.154069 1.115154 -0.000003 -0.000001 0.000006 9.109369 -0.517864 2.259744 81.265208 -14.432367 12.391030 3.700021 0.000154 -0.000465 78.953223 -12.537816 10.353990 2.850050 0.000166 0.000200 77.096908 -11.837818 9.443799 2.774879 -0.000031 -0.000028 0.000001 0.000001 -0.000000 9.533458 0.000194 -0.000085 73.857813 -15.299550 11.522345 3.700047 0.000140 -0.000374 76.535050 -14.193083 11.215419 2.950054 0.000131 -0.000198 75.361719 -17.164622 13.299627 2.952876 -0.000031 0.000063 0.000000 0.000000 -0.000001 9.104589 -0.042880 -1.865208 73.703267 -15.360090 11.544148 3.150057 0.000166 -0.000097 78.603846 -15.464658 12.685462 2.950022 0.000123 -0.000067 79.581997 -16.464151 13.743482 2.644321 0.000015 0.000058 -0.000000 0.000001 0.000001 8.077847 -0.486780 -3.806399 58.509436 -19.327648 11.254923 3.599985 0.000099 0.014581 58.217070 -15.424558 8.928152 2.100009 0.000124 0.007558 61.300845 -13.867278 8.545615 2.125509 -0.000033 0.007513 0.000002 0.000002 0.000001 -8.207786 -6.751667 -1.599560 -0.077001 -0.000003 0.000080 -0.000002 -44.370110 0.345938 0.153719 -0.000000 -0.000000 0.000000 -44.423679 -3.043532 -0.076700 0.000000 -0.000002 -0.000006 -8.728667 10.710559 -0.000009 -0.000000 -0.000000 -0.000001 -0.000679 9.278123 0.000000 -0.000000 -0.000000 8.207792 -6.751710 -1.599556 -0.074518 -0.000003 0.000081 -0.000002 -44.370014 0.346960 0.148822 0.000002 0.000000 -0.000001 -44.423664 -3.044403 -0.074314 0.000000 -0.000002 -0.000004 -8.728671 10.710558 0.000007 -0.000000 -0.000000 0.000000 -0.000680 9.278137 -0.000000 0.000000 -0.000001 
0.000006 104.270477 1.554256 0.000010 0.000003 -0.000113 -0.000005 10.181587 0.131522 0.000001 -0.000003 0.000084 -0.000000 9.893967 -1.470711 0.000001 0.000000 -0.000000 -0.000000 9.220802 -1.370642 0.000000 -0.000000 -0.000000 0.000001 16.740433 -2.049030 0.000000 -0.000000 -0.000000 0.000000 9.617859 1.685014 0.000000 0.000000 0.000000 0.000002 22.037384 7.501101 0.000000 -0.000000 0.000000 -4.569968 11.014880 -2.160881 0.000008 0.000001 -0.000038 -10.592873 -0.524768 -2.231899 77.090453 30.937041 -24.867346 -27.841511 0.000015 0.000571 -50.474599 107.406644 65.381098 -28.328840 0.000005 0.000024 -0.000320 -0.000042 0.000006 -2.464660 -1.573594 2.682219 127.779903 24.271279 102.186255 -3.215289 -1.872665 1.924698 151.504374 27.189241 -24.948880 -2.654960 -1.527870 1.513068 140.298561 28.135281 -39.811533 -2.018834 -1.151996 1.108063 -0.000003 -0.000001 0.000002 -9.108361 -0.517559 2.260120 97.289665 15.291120 -17.394330 -3.700073 0.000326 0.001510 94.959198 13.155008 -14.308462 -2.850076 0.000373 -0.000277 92.300772 11.130680 -11.582861 -2.772175 -0.000002 -0.000022 0.000003 -0.000001 -0.000001 -9.532574 0.000257 0.000184 79.119013 15.908957 -13.287557 -3.700055 0.000326 0.003916 80.954298 10.637613 -9.005351 -2.950057 0.000314 -0.001867 81.489034 11.299234 -9.736168 -2.946625 -0.000003 -0.000154 0.000001 -0.000001 0.000000 -9.103690 -0.042775 -1.864948 74.616552 18.227454 -13.903896 -3.379331 0.000297 -0.000887 77.815997 8.543759 -6.914248 -2.889764 0.000335 0.000567 81.441004 7.094442 -6.147981 -2.638810 -0.000015 0.000941 -0.000002 -0.000002 0.000001 -8.076750 -0.486429 -3.806111 64.432446 19.321840 -12.143978 -3.600032 0.000214 -0.003635 63.857781 10.074706 -6.056941 -2.100022 0.000279 -0.005596 66.165272 6.077960 -3.816309 -2.115767 -0.000056 -0.003689 0.000001 0.000004 -0.000004 4.570446 11.014691 -2.160851 -0.000018 0.000010 -0.000021 10.592424 -0.524461 -2.232378 76.340533 -21.300648 16.817934 27.841839 0.000054 -0.000200 113.190421 -74.028117 97.645361 28.328806 -0.000029 0.000023 0.000029 -0.000090 0.000001 2.465866 -1.575863 2.681821 -47.397094 -149.257378 77.152690 3.217868 -1.871871 1.916420 154.879717 -23.020077 46.154464 2.656092 -1.528705 1.514487 129.298254 -31.235070 58.029854 2.020902 -1.154052 1.115153 -0.000001 0.000001 0.000004 9.109363 -0.517869 2.259737 81.831288 -16.109257 13.974036 3.700046 0.000162 -0.000487 81.058554 -10.120769 8.672996 2.850020 0.000182 0.000187 79.358308 -7.717131 6.404143 2.774870 -0.000031 -0.000026 0.000000 -0.000001 0.000001 9.533461 0.000185 -0.000101 77.229427 -16.362471 13.093859 3.700031 0.000147 -0.000380 78.209552 -10.256766 8.342288 2.950037 0.000152 -0.000194 78.289124 -10.939584 8.915982 2.952866 -0.000031 0.000060 -0.000000 0.000000 -0.000000 9.104583 -0.042879 -1.865211 75.091728 -16.024592 12.350905 3.150044 0.000164 -0.000106 80.824914 -11.855975 10.106133 2.950025 0.000165 -0.000081 82.114638 -11.039818 9.624878 2.644310 0.000015 0.000055 0.000002 0.000001 -0.000000 8.077830 -0.486763 -3.806381 62.101330 -18.088883 11.323462 3.600008 0.000136 0.014582 64.567035 -16.056262 10.526077 2.100034 0.000118 0.007546 67.379782 -12.502181 8.682867 2.125515 -0.000014 0.007519 0.000002 0.000000 -0.000001 -8.207786 -6.751667 -1.599560 -0.077001 -0.000003 0.000080 -0.000002 -44.370110 0.345938 0.153719 -0.000000 -0.000000 0.000000 -44.423679 -3.043532 -0.076700 0.000000 -0.000002 -0.000006 -8.728667 10.710559 -0.000009 -0.000000 -0.000000 -0.000001 -0.000679 9.278123 0.000000 -0.000000 -0.000000 8.207792 -6.751710 -1.599556 -0.074518 -0.000003 0.000081 -0.000002 -44.370014 0.346960 0.148822 0.000002 0.000000 -0.000001 -44.423664 -3.044403 -0.074314 0.000000 -0.000002 -0.000004 -8.728671 10.710558 0.000007 -0.000000 -0.000000 0.000000 -0.000680 9.278137 -0.000000 0.000000 -0.000001 
0.000006 104.270477 1.554256 0.000010 0.000003 -0.000113 -0.000005 10.181587 0.131522 0.000001 -0.000003 0.000084 -0.000000 9.893967 -1.470711 0.000001 0.000000 -0.000000 -0.000000 9.220802 -1.370642 0.000000 -0.000000 -0.000000 0.000001 16.740433 -2.049030 0.000000 -0.000000 -0.000000 0.000000 9.617859 1.685014 0.000000 0.000000 0.000000 0.000002 22.037384 7.501101 0.000000 -0.000000 0.000000 -4.569968 11.014880 -2.160881 0.000008 0.000001 -0.000038 -10.592846 -0.524811 -2.231808 77.443711 47.038693 -38.472352 -27.841526 0.000011 0.000566 -47.095684 103.274489 57.672949 -28.328833 0.000012 0.000035 -0.000320 -0.000047 0.000008 -2.464702 -1.573582 2.682208 130.293276 27.984356 91.516967 -3.215267 -1.872678 1.924713 148.767749 26.418817 -33.392218 -2.654954 -1.527876 1.513070 136.977531 28.810018 -42.995785 -2.018826 -1.152002 1.108058 -0.000003 -0.000001 0.000002 -9.108363 -0.517554 2.260100 94.903457 14.394639 -15.716900 -3.700029 0.000331 0.001473 91.681417 11.320338 -11.631594 -2.850073 0.000375 -0.000288 88.750993 8.867443 -8.676067 -2.772152 -0.000001 -0.000020 -0.000000 -0.000003 0.000002 -9.532577 0.000264 0.000162 80.662041 14.302736 -12.280142 -3.700070 0.000310 0.003906 81.821370 10.016227 -8.604769 -2.950054 0.000316 -0.001873 81.367408 10.259386 -8.819506 -2.946628 0.000002 -0.000150 -0.000002 -0.000001 -0.000002 -9.103689 -0.042767 -1.864944 76.119426 16.477230 -12.900273 -3.379313 0.000296 -0.000866 79.944482 9.535567 -8.013490 -2.889760 0.000330 0.000581 83.875625 7.357099 -6.652867 -2.638814 -0.000028 0.000941 -0.000002 0.000000 0.000002 -8.076735 -0.486410 -3.806114 66.733154 17.344888 -11.369097 -3.600029 0.000233 -0.003617 66.702138 9.659087 -6.124226 -2.100011 0.000288 -0.005600 71.018114 5.810736 -3.989900 -2.115772 -0.000042 -0.003679 -0.000001 0.000004 -0.000005 4.570446 11.014691 -2.160851 -0.000018 0.000010 -0.000021 10.592506 -0.524477 -2.232401 76.134705 -46.196637 36.941614 27.841833 0.000038 -0.000177 115.713459 -77.253927 103.639733 28.328835 -0.000028 0.000024 0.000020 -0.000087 -0.000001 2.465873 -1.576007 2.681910 -52.421439 -167.254462 36.625896 3.217868 -1.871924 1.916438 148.421459 -23.129100 58.679180 2.656087 -1.528719 1.514493 128.301115 -31.613828 58.341406 2.020876 -1.154052 1.115151 0.000002 -0.000002 -0.000001 9.109380 -0.517859 2.259732 82.889147 -16.965254 14.993329 3.700043 0.000159 -0.000468 82.813557 -9.946898 8.790786 2.850046 0.000190 0.000185 81.918482 -6.900510 5.990641 2.774891 -0.000044 -0.000027 0.000003 0.000000 -0.000002 9.533471 0.000188 -0.000078 80.159606 -17.473321 14.728992 3.700049 0.000183 -0.000369 82.103382 -10.398100 9.059135 2.950045 0.000165 -0.000217 82.613836 -9.632399 8.471376 2.952880 -0.000015 0.000063 0.000008 0.000003 0.000000 9.104601 -0.042868 -1.865214 80.410670 -16.515824 13.988842 3.150060 0.000187 -0.000089 83.882325 -13.064583 11.750576 2.950007 0.000179 -0.000083 85.372153 -10.928870 10.086120 2.644319 0.000029 0.000055 -0.000000 -0.000001 -0.000000 8.077852 -0.486751 -3.806375 70.816385 -19.285893 14.213168 3.600013 0.000159 0.014577 73.241792 -18.153120 13.947591 2.100032 0.000165 0.007566 75.678776 -13.824552 11.145473 2.125509 -0.000016 0.007512 -0.000002 -0.000001 0.000001 -8.207786 -6.751667 -1.599560 -0.077001 -0.000003 0.000080 -0.000002 -44.370110 0.345938 0.153719 -0.000000 -0.000000 0.000000 -44.423679 -3.043532 -0.076700 0.000000 -0.000002 -0.000006 -8.728667 10.710559 -0.000009 -0.000000 -0.000000 -0.000001 -0.000679 9.278123 0.000000 -0.000000 -0.000000 8.207792 -6.751710 -1.599556 -0.074518 -0.000003 0.000081 -0.000002 -44.370014 0.346960 0.148822 0.000002 0.000000 -0.000001 -44.423664 -3.044403 -0.074314 0.000000 -0.000002 -0.000004 -8.728671 10.710558 0.000007 -0.000000 -0.000000 0.000000 -0.000680 9.278137 -0.000000 0.000000 -0.000001 
